<svg xmlns="http://www.w3.org/2000/svg" xmlns:xlink="http://www.w3.org/1999/xlink" viewBox="0,0,255.99538,255.99538" width="30px" height="30px"><g fill-opacity="0" fill="#ffffff" fill-rule="nonzero" stroke="none" stroke-width="1" stroke-linecap="butt" stroke-linejoin="miter" stroke-miterlimit="10" stroke-dasharray="" stroke-dashoffset="0" font-family="none" font-weight="none" font-size="none" text-anchor="none" style="mix-blend-mode: normal"><path d="M0,255.99538v-255.99538h255.99538v255.99538z" id="bgRectangle"></path></g><g fill="#ffffff" fill-rule="nonzero" stroke="none" stroke-width="1" stroke-linecap="butt" stroke-linejoin="miter" stroke-miterlimit="10" stroke-dasharray="" stroke-dashoffset="0" font-family="none" font-weight="none" font-size="none" text-anchor="none" style="mix-blend-mode: normal"><path d="M63.99884,255.99538c-35.34559,0 -63.99884,-28.65326 -63.99884,-63.99884v-127.99769c0,-35.34559 28.65326,-63.99884 63.99884,-63.99884h127.99769c35.34559,0 63.99884,28.65326 63.99884,63.99884v127.99769c0,35.34559 -28.65326,63.99884 -63.99884,63.99884z" id="shape"></path></g><g fill="none" fill-rule="nonzero" stroke="#000000" stroke-width="3" stroke-linecap="round" stroke-linejoin="round" stroke-miterlimit="10" stroke-dasharray="" stroke-dashoffset="0" font-family="none" font-weight="none" font-size="none" text-anchor="none" style="mix-blend-mode: normal"><g transform="scale(5.33333,5.33333)"><path d="M13.4,13.8l-3.6,2.9c-1.4,1.1 -2.3,2.9 -2.3,4.7v18.1c0,1.1 0.9,2 2,2h20"></path><path d="M35,41.5h3.5c1.1,0 2,-0.9 2,-2v-18.1c0,-1.8 -0.8,-3.6 -2.3,-4.7l-13.6,-10.7c-0.4,-0.3 -0.9,-0.3 -1.2,0l-4.6,3.6"></path><path d="M18.5,35.7v-8.2c0,-0.6 0.4,-1 1,-1h8.9c0.6,0 1,0.4 1,1v14"></path></g></g></svg>